<?xml version="1.0" standalone="no"?>
<!DOCTYPE svg PUBLIC "-//W3C//DTD SVG 20010904//EN"
 "http://www.w3.org/TR/2001/REC-SVG-20010904/DTD/svg10.dtd">
<svg version="1.0" xmlns="http://www.w3.org/2000/svg"
 width="864.000000pt" height="864.000000pt" viewBox="0 0 864.000000 864.000000"
 preserveAspectRatio="xMidYMid meet">
<metadata>
Created by potrace 1.14, written by Peter Selinger 2001-2017
</metadata>
<g transform="translate(0.000000,864.000000) scale(0.100000,-0.100000)"
fill="#000000" stroke="none">
<path d="M5005 7714 c-28 -25 -67 -59 -87 -76 -21 -17 -53 -44 -71 -62 -18
-17 -59 -53 -91 -81 -32 -27 -68 -59 -80 -70 -12 -11 -51 -45 -85 -75 -35 -30
-80 -70 -99 -88 -19 -18 -57 -52 -85 -75 -27 -23 -63 -55 -81 -72 -18 -16 -55
-49 -83 -73 -28 -24 -68 -59 -90 -78 -56 -53 -90 -83 -168 -149 -38 -33 -72
-63 -75 -66 -3 -3 -30 -27 -60 -54 -88 -77 -203 -179 -220 -195 -8 -8 -44 -40
-80 -70 -35 -30 -74 -64 -85 -75 -12 -11 -48 -42 -79 -70 -32 -27 -73 -63 -91
-80 -18 -16 -60 -55 -95 -85 -34 -30 -68 -59 -74 -65 -48 -43 -203 -179 -250
-220 -31 -27 -75 -66 -96 -86 -21 -19 -61 -54 -88 -77 -27 -23 -60 -52 -73
-64 -14 -13 -54 -48 -88 -78 -35 -30 -78 -68 -96 -85 -28 -26 -67 -60 -165
-145 -14 -11 -41 -36 -60 -53 -19 -18 -71 -64 -115 -102 -44 -39 -87 -78 -96
-87 -9 -10 -19 -18 -21 -18 -3 0 -23 -17 -45 -37 -22 -21 -55 -52 -74 -68 -19
-17 -72 -64 -119 -105 -47 -41 -96 -84 -109 -95 -12 -11 -33 -29 -45 -40 -32
-28 -165 -146 -190 -168 -12 -10 -35 -31 -51 -45 -17 -15 -66 -58 -110 -97
-44 -38 -85 -74 -91 -80 -14 -13 -151 -135 -174 -155 -9 -8 -43 -37 -74 -65
-32 -27 -72 -63 -91 -80 -44 -40 -135 -120 -161 -142 -17 -15 -131 -116 -178
-158 -49 -44 -176 -156 -200 -176 -15 -13 -45 -40 -66 -59 -21 -19 -49 -45
-63 -56 l-25 -22 0 -1146 c0 -631 4 -1146 8 -1144 7 3 106 91 200 178 15 14
64 59 110 100 46 41 95 86 110 100 15 14 60 54 100 90 40 36 92 83 116 105 71
65 167 152 200 182 17 15 71 64 119 108 49 44 111 100 139 125 27 25 76 70
109 100 33 30 73 66 90 80 16 14 51 45 77 70 26 25 67 63 92 85 62 55 204 183
243 220 69 64 196 179 230 207 19 17 59 53 90 82 30 28 80 74 111 101 30 28
77 70 104 95 26 25 73 68 105 95 31 28 76 68 99 90 24 22 75 68 113 103 39 34
83 75 100 90 41 38 193 176 221 200 13 11 63 57 112 102 49 45 97 89 108 98
32 28 193 174 236 215 23 21 55 51 72 65 17 15 68 61 114 102 45 41 92 84 104
95 12 11 62 57 112 102 49 45 99 90 110 100 12 10 61 54 109 98 122 112 132
121 225 205 46 41 95 86 110 100 15 14 62 57 105 95 43 39 89 79 101 90 118
107 192 174 214 195 36 34 180 164 207 187 l22 19 0 1092 c0 601 -1 1092 -2
1092 -1 0 -25 -21 -52 -46z"/>
<path d="M8313 7728 c-20 -18 -44 -40 -53 -48 -9 -8 -42 -37 -74 -65 -32 -27
-65 -57 -74 -65 -10 -9 -55 -49 -102 -90 -47 -41 -90 -79 -96 -85 -23 -21
-158 -141 -178 -158 -12 -10 -47 -41 -79 -69 -32 -29 -68 -60 -80 -71 -12 -10
-53 -46 -91 -80 -38 -34 -82 -73 -99 -87 -16 -14 -42 -36 -56 -50 -14 -14 -60
-54 -101 -90 -41 -36 -80 -69 -86 -75 -6 -5 -44 -39 -84 -75 -40 -36 -78 -69
-84 -75 -6 -5 -50 -44 -96 -85 -47 -41 -92 -81 -101 -90 -9 -8 -35 -31 -58
-50 -24 -19 -57 -48 -74 -65 -18 -16 -64 -57 -102 -91 -166 -145 -405 -356
-435 -384 -8 -8 -44 -40 -80 -70 -35 -30 -74 -64 -85 -75 -12 -11 -48 -43 -81
-72 -32 -28 -75 -65 -94 -83 -19 -17 -57 -50 -84 -73 -26 -23 -68 -60 -92 -82
-23 -23 -62 -57 -86 -77 -24 -20 -55 -47 -69 -59 -14 -13 -59 -53 -99 -89 -41
-36 -84 -74 -96 -85 -44 -40 -90 -81 -134 -119 -72 -62 -171 -149 -199 -176
-15 -14 -49 -43 -76 -65 -26 -22 -70 -61 -98 -87 -27 -27 -51 -48 -53 -48 -2
0 -12 -8 -22 -18 -10 -9 -51 -46 -92 -82 -40 -36 -85 -76 -99 -88 -14 -13 -53
-47 -85 -75 -76 -67 -81 -71 -157 -139 -35 -31 -75 -66 -89 -78 -14 -12 -41
-36 -60 -53 -19 -18 -66 -59 -104 -92 -39 -33 -84 -73 -102 -90 -17 -16 -55
-50 -85 -75 -29 -25 -60 -52 -68 -61 -9 -8 -72 -64 -141 -125 -69 -60 -135
-119 -148 -130 l-24 -22 0 -1118 c0 -616 1 -1134 1 -1152 l1 -33 33 33 c28 27
168 156 211 193 7 6 39 35 71 65 33 30 103 93 154 140 52 47 106 96 120 108
14 13 62 56 106 95 43 40 94 87 112 105 19 17 35 32 38 32 2 0 16 12 32 28 38
37 154 143 243 222 40 36 89 80 109 98 20 19 62 57 94 85 33 29 73 66 91 82
27 26 150 138 250 228 17 16 49 45 71 65 23 20 78 71 124 112 46 41 93 84 105
95 12 11 64 58 116 105 52 47 104 94 116 105 11 11 56 52 98 90 93 83 98 88
211 190 48 44 100 91 115 105 119 108 199 181 233 213 22 20 41 37 42 37 2 0
16 12 32 28 15 15 68 63 117 107 50 44 113 101 140 127 28 25 63 57 77 70 99
88 198 179 231 211 21 20 40 37 43 37 2 0 19 15 37 33 37 34 66 61 217 197 52
47 106 96 121 110 15 14 62 57 106 97 43 39 91 82 105 95 14 12 58 52 98 88
40 36 90 81 110 100 21 19 75 69 121 110 127 115 190 172 226 205 17 17 58 54
91 82 33 29 86 77 118 108 l59 54 0 1091 c1 599 0 1090 -1 1090 -1 0 -19 -15
-40 -32z"/>
</g>
</svg>
